solid guitar_pick
  facet normal 0 -0 -1
    outer loop
      vertex -11 10 0
      vertex 0 -17 0
      vertex -14 6 0
    endloop
  endfacet
  facet normal 0 0 1
    outer loop
      vertex -11 10 1.2
      vertex -14 6 1.2
      vertex 0 -17 1.2
    endloop
  endfacet
  facet normal 0 0 -1
    outer loop
      vertex -11 10 0
      vertex 14 6 0
      vertex 0 -17 0
    endloop
  endfacet
  facet normal 0 0 1
    outer loop
      vertex -11 10 1.2
      vertex 0 -17 1.2
      vertex 14 6 1.2
    endloop
  endfacet
  facet normal 0 0 -1
    outer loop
      vertex -11 10 0
      vertex 11 10 0
      vertex 14 6 0
    endloop
  endfacet
  facet normal -0 0 1
    outer loop
      vertex -11 10 1.2
      vertex 14 6 1.2
      vertex 11 10 1.2
    endloop
  endfacet
  facet normal -0.8 0.6 0
    outer loop
      vertex -11 10 0
      vertex -14 6 0
      vertex -14 6 1.2
    endloop
  endfacet
  facet normal -0.8 0.6 0
    outer loop
      vertex -11 10 0
      vertex -14 6 1.2
      vertex -11 10 1.2
    endloop
  endfacet
  facet normal -0.85419856 -0.51994695 0
    outer loop
      vertex -14 6 0
      vertex 0 -17 0
      vertex 0 -17 1.2
    endloop
  endfacet
  facet normal -0.85419856 -0.51994695 0
    outer loop
      vertex -14 6 0
      vertex 0 -17 1.2
      vertex -14 6 1.2
    endloop
  endfacet
  facet normal 0.85419856 -0.51994695 0
    outer loop
      vertex 0 -17 0
      vertex 14 6 0
      vertex 14 6 1.2
    endloop
  endfacet
  facet normal 0.85419856 -0.51994695 0
    outer loop
      vertex 0 -17 0
      vertex 14 6 1.2
      vertex 0 -17 1.2
    endloop
  endfacet
  facet normal 0.8 0.6 0
    outer loop
      vertex 14 6 0
      vertex 11 10 0
      vertex 11 10 1.2
    endloop
  endfacet
  facet normal 0.8 0.6 -0
    outer loop
      vertex 14 6 0
      vertex 11 10 1.2
      vertex 14 6 1.2
    endloop
  endfacet
  facet normal 0 1 0
    outer loop
      vertex 11 10 0
      vertex -11 10 0
      vertex -11 10 1.2
    endloop
  endfacet
  facet normal 0 1 -0
    outer loop
      vertex 11 10 0
      vertex -11 10 1.2
      vertex 11 10 1.2
    endloop
  endfacet
endsolid guitar_pick
